PathFileType	4	(X/Y/Z)	C:/Users/opensim2020/Desktop/walking_exp_matlab/subject01_walking04_straight_04.trc	
DataRate	CameraRate	NumFrames	NumMarkers	Units	OrigDataRate	OrigDataStartFrame	OrigNumFrames	
100.00	100.00	7	43	mm	100.00	2697	279	
Frame#	Time	LFHD			RFHD			LBHD			RBHD			C7			T10			CLAV			STRN			RBAK			LSHO			LUPA			LELB			LFRM			LWRA			LWRB			LFIN			RSHO			RUPA			RELB			RFRM			RWRA			RWRB			RFIN			LASI			RASI			LPSI			RPSI			LTHI			LKNE			LTIB			LANK			LHEE			LTOE			RTHI			RKNE			RTIB			RANK			RHEE			RTOE			*39			*40			*41			*42			
		X1	Y1	Z1	X2	Y2	Z2	X3	Y3	Z3	X4	Y4	Z4	X5	Y5	Z5	X6	Y6	Z6	X7	Y7	Z7	X8	Y8	Z8	X9	Y9	Z9	X10	Y10	Z10	X11	Y11	Z11	X12	Y12	Z12	X13	Y13	Z13	X14	Y14	Z14	X15	Y15	Z15	X16	Y16	Z16	X17	Y17	Z17	X18	Y18	Z18	X19	Y19	Z19	X20	Y20	Z20	X21	Y21	Z21	X22	Y22	Z22	X23	Y23	Z23	X24	Y24	Z24	X25	Y25	Z25	X26	Y26	Z26	X27	Y27	Z27	X28	Y28	Z28	X29	Y29	Z29	X30	Y30	Z30	X31	Y31	Z31	X32	Y32	Z32	X33	Y33	Z33	X34	Y34	Z34	X35	Y35	Z35	X36	Y36	Z36	X37	Y37	Z37	X38	Y38	Z38	X39	Y39	Z39	X40	Y40	Z40	X41	Y41	Z41	X42	Y42	Z42	X43	Y43	Z43	

1	0.000	1265.66455	1804.50671	1668.77722	1168.14709	1741.83032	1667.46667	1207.61096	1907.77441	1627.89478	1105.88379	1848.60620	1626.04053	1157.96460	1940.44910	1430.27405	1149.50549	1970.45837	1137.28601	1223.21228	1812.23877	1363.73071	1254.95020	1774.63550	1212.77979	1077.37354	1958.89539	1229.78699	1340.91687	1936.87598	1399.46973	1420.62329	2003.20728	1225.90759	1451.38000	2009.44580	1075.60315	1525.29248	1932.71765	1019.45129	1576.07263	1805.36609	993.92609	1580.43262	1847.75793	951.72919	1634.01892	1785.75049	940.36169	1055.80469	1804.87256	1383.30920	946.51367	1837.38574	1183.96948	942.35651	1853.55347	1062.81506	915.34265	1841.93005	943.59845	950.98792	1798.84741	810.63232	899.53735	1825.34448	822.22913	910.07275	1814.02173	736.10162	1329.51538	1872.71985	930.25403	1143.20447	1760.85437	936.69989	1189.85193	2005.45300	946.40228	1064.49902	1930.60999	947.37927	1360.78577	1978.60938	606.12378	1346.19666	2011.89221	475.14435	1271.94812	2139.01318	352.77133	1167.02124	2239.26270	181.48019	1095.94287	2235.30591	182.54539	1224.75159	2204.56519	47.66069	1102.04175	1735.68372	606.98096	1154.16272	1714.63098	457.24936	1145.84692	1742.28796	281.75229	1203.44739	1767.72913	82.07661	1235.47339	1830.70447	44.28777	1251.43872	1637.01343	46.75099	1182.05200	1760.09106	1702.95911	-3101.87085	1973.34094	1023.36780	-3140.60181	2012.55481	1022.02100			 
2	0.010	1267.09229	1795.94421	1669.46448	1169.33984	1733.74133	1667.86035	1209.84338	1899.48059	1628.15930	1107.88721	1840.77100	1626.07751	1161.16809	1932.11438	1430.65137	1153.05090	1961.94360	1137.66516	1225.66418	1803.41223	1364.27576	1257.20410	1765.42944	1213.29358	1080.69202	1950.54236	1230.18213	1343.87610	1927.24927	1399.90137	1423.46606	1993.89941	1226.36841	1452.72925	2001.44678	1075.92053	1525.67566	1925.11938	1017.70288	1575.67236	1797.87793	989.43915	1579.72559	1841.01892	947.90009	1632.82349	1778.73730	934.64758	1058.23108	1797.05383	1384.14661	949.47144	1829.25818	1184.34021	945.72009	1844.50684	1063.06226	919.13007	1831.56372	943.84338	955.34839	1786.93176	811.44165	904.07739	1813.73645	822.54382	914.93134	1801.46350	736.55682	1331.69910	1862.16052	931.09680	1144.85864	1752.06104	937.28864	1193.65088	1996.33777	946.77106	1067.83167	1922.32483	947.99023	1369.84790	1962.19678	605.44666	1356.44409	1993.95190	474.04599	1282.13550	2123.78735	355.62521	1175.10315	2227.81055	187.78749	1103.68494	2222.68677	190.90596	1226.49194	2199.98950	50.30734	1103.67981	1729.95447	606.64325	1155.63721	1708.84680	456.61130	1147.17395	1739.15869	281.71838	1203.80127	1767.41980	82.04594	1235.52588	1830.64490	44.32922	1251.44580	1636.53760	46.17298	1183.18445	1752.10864	1703.32056	-3101.97510	1973.14563	1023.35962	-3140.62158	2012.57495	1022.03662			 
3	0.020	1268.94226	1787.54089	1670.20557	1170.64368	1725.74133	1668.31360	1212.36646	1891.25146	1628.44482	1110.08936	1833.35681	1626.09839	1164.23413	1923.67932	1430.87964	1156.45398	1953.40796	1138.01880	1228.07507	1794.60645	1364.70581	1259.15271	1756.53882	1213.66040	1083.72119	1942.19177	1230.66772	1346.92664	1917.78491	1400.21240	1426.22412	1984.48682	1226.45874	1453.66455	1993.22388	1075.80115	1525.64502	1917.29785	1015.51776	1575.35962	1790.58459	984.70325	1579.08948	1834.48962	943.89813	1631.72070	1771.87427	928.83704	1060.94714	1789.01294	1384.82202	952.23499	1821.08789	1184.91565	949.10889	1835.41760	1063.37048	923.07361	1821.27356	944.02368	959.97528	1774.55823	812.48108	908.66821	1801.77209	822.90881	919.87109	1788.42139	737.11572	1333.98145	1852.00073	931.87573	1146.59766	1743.44116	937.84045	1197.28418	1987.47937	946.99030	1070.97766	1914.27258	948.44275	1378.32263	1945.75659	604.65686	1366.72644	1976.18176	473.30603	1292.29688	2107.39844	357.05957	1183.00684	2215.99634	194.35764	1111.85400	2210.56934	199.73001	1229.25525	2193.05225	54.04942	1105.32092	1725.16296	606.63348	1157.57520	1703.85425	456.28128	1148.29858	1736.16980	281.57535	1203.93335	1767.18579	82.12656	1235.56189	1830.59766	44.35587	1251.67126	1636.33411	45.77846	1184.53564	1744.16187	1703.66577	-3101.78760	1973.10718	1023.39124	-3140.72583	2012.52734	1021.95874			 
4	0.030	1270.80530	1779.04846	1670.94971	1172.05945	1717.78589	1668.82703	1214.94287	1883.06299	1628.80505	1111.39575	1825.78870	1626.57642	1167.46875	1915.43555	1431.24207	1159.66992	1944.97058	1138.35437	1230.57764	1785.94788	1365.16577	1261.33972	1747.57117	1214.10461	1086.53296	1933.91589	1231.26184	1350.17529	1908.55859	1400.48682	1429.63098	1975.57361	1226.78442	1454.95972	1985.21411	1075.63403	1526.08923	1909.99268	1013.11963	1574.99792	1783.41772	979.64032	1578.46338	1828.08557	939.58337	1630.38391	1765.06958	922.52399	1063.35071	1781.16260	1385.53894	955.05249	1812.66711	1185.52588	952.24664	1826.46277	1063.63513	926.79498	1810.69507	944.09100	964.51257	1762.10742	813.42853	913.30890	1789.56262	823.23334	924.92316	1774.97876	737.70819	1336.66821	1842.40833	932.71155	1148.09387	1735.04700	938.01953	1200.81226	1978.82434	947.04523	1074.07300	1906.45325	948.78094	1386.34253	1929.41467	604.10449	1376.37842	1958.22522	472.37311	1302.75378	2090.97070	358.67166	1190.84680	2203.24414	200.85756	1120.38452	2198.49683	208.23282	1233.70654	2183.35034	58.58158	1106.48804	1719.48718	606.49023	1157.95264	1699.00757	455.75287	1149.17859	1733.61475	281.38718	1204.07556	1767.05908	82.15683	1235.57556	1830.61182	44.40810	1251.77795	1636.14539	45.44732	1186.03943	1736.23682	1704.13733	-3101.94580	1973.08643	1023.28412	-3140.71094	2012.58923	1022.05072			 
5	0.040	1272.68384	1770.47144	1671.69910	1173.67737	1709.84741	1669.47852	1217.62354	1874.67529	1629.24133	1113.81921	1818.24365	1626.89758	1170.77063	1907.27966	1431.74683	1162.83484	1936.54675	1138.74170	1232.80383	1777.25415	1365.50525	1263.35730	1738.82690	1214.49255	1089.37842	1925.64844	1231.88574	1353.36865	1899.30090	1400.61145	1432.48657	1966.38989	1226.69409	1456.29761	1976.95471	1075.25708	1526.53076	1902.77539	1010.41071	1574.52209	1776.41809	974.21191	1577.86072	1821.88843	934.98511	1628.99414	1758.48486	915.99017	1066.09827	1773.22021	1386.30237	957.54749	1804.36353	1186.21094	955.21472	1817.61365	1063.82642	930.54608	1800.14795	944.16608	969.47638	1749.91663	814.58368	918.03687	1776.90466	823.53113	930.42609	1760.86499	738.52002	1339.09656	1832.76440	933.05359	1149.74097	1726.87402	938.21454	1204.37170	1970.47620	946.97705	1077.12061	1898.74939	949.00958	1393.69897	1913.24329	603.88409	1385.30103	1939.99011	471.58884	1313.06799	2074.28516	360.29205	1199.32434	2189.54395	206.96173	1129.29309	2186.14355	215.59338	1238.96460	2170.23926	62.94985	1107.98352	1713.87671	606.28986	1159.52942	1694.64856	454.96573	1149.94592	1731.41028	281.08014	1204.28772	1766.90515	82.13923	1235.62341	1830.53247	44.48482	1252.04553	1636.07910	45.31098	1187.67407	1728.26965	1704.64050	-3101.99561	1973.14392	1023.39178	-3140.68286	2012.66028	1022.07782			 
6	0.050	1274.80188	1761.88416	1672.38953	1175.42590	1701.86169	1670.03003	1220.54333	1866.40210	1629.74915	1116.45789	1810.63293	1627.23022	1173.95508	1898.92273	1432.23450	1165.85925	1928.22412	1139.25940	1235.55566	1768.83093	1366.10046	1265.35388	1730.19092	1214.84680	1092.09094	1917.49023	1232.60364	1356.53638	1890.16345	1400.71643	1435.35059	1957.39893	1226.63660	1457.75867	1968.80310	1074.78711	1527.09546	1895.66589	1007.60883	1574.17358	1769.63452	968.56110	1577.16223	1815.82556	930.09589	1627.48181	1752.14465	909.12561	1069.11584	1765.37146	1387.04810	960.11493	1795.78174	1186.81580	958.24200	1808.62451	1064.00769	934.28186	1789.37463	944.20642	973.92084	1735.74353	816.22131	922.70935	1764.06384	823.89832	935.70703	1746.34778	739.26447	1341.49512	1823.35278	933.46155	1151.42090	1718.97412	938.44928	1207.92896	1962.29504	946.76465	1080.22119	1891.64966	949.40167	1400.59875	1897.19458	604.02460	1393.82092	1921.63977	471.38745	1323.04907	2057.34912	362.36356	1208.63977	2175.01782	212.03616	1138.56555	2173.79565	221.76152	1244.89343	2154.69995	67.01462	1109.65088	1708.45105	606.16064	1160.03076	1690.42578	454.34576	1150.51550	1729.34058	280.72897	1204.42395	1766.66382	82.12106	1235.64148	1830.46985	44.58998	1252.19031	1635.81885	45.07515	1189.45581	1720.34802	1705.23352	-3101.90698	1973.17273	1023.29626	-3140.64600	2012.61719	1022.16034			 
7	0.060	1276.41431	1752.30750	1672.83777	1177.29724	1693.95300	1670.65881	1223.67224	1858.20508	1630.32141	1118.70959	1803.13281	1627.92651	1177.47949	1890.78857	1432.93555	1168.71301	1920.07251	1139.87390	1237.99841	1760.38892	1366.54358	1267.60071	1721.48840	1215.29797	1094.90076	1909.47034	1233.33875	1359.77051	1881.14148	1400.71851	1438.74182	1948.85071	1226.82605	1459.56445	1960.52136	1074.38171	1527.71606	1888.53931	1004.75183	1573.70789	1763.04150	962.59656	1576.47107	1809.97778	925.01245	1626.00696	1746.18518	902.11450	1071.35791	1757.42688	1387.61646	962.66473	1787.09082	1187.43982	961.06232	1799.70435	1064.18994	937.87653	1778.67065	944.33533	978.77472	1722.68347	817.67828	927.42151	1750.81873	824.41602	941.20288	1731.41699	740.30859	1343.90002	1813.90015	933.74365	1153.03247	1711.28491	938.65833	1211.51050	1954.24573	946.55792	1083.20923	1884.65442	949.63770	1407.25244	1881.33130	604.61493	1401.66431	1903.03809	471.75974	1332.16357	2039.71033	364.69168	1218.50781	2159.50342	216.05696	1148.32361	2160.68457	226.99330	1251.66602	2137.50684	70.37871	1111.07080	1703.10510	605.92615	1160.79773	1686.62659	453.69363	1151.16528	1727.57153	280.56143	1204.61707	1766.46228	82.14935	1235.74194	1830.37024	44.81334	1252.41650	1635.63342	44.91155	1191.68042	1712.18274	1705.98376	-3101.84644	1973.14612	1023.54065	-3140.76196	2012.53564	1021.98761			 
